<svg width="300" height="300" viewBox="0 0 300 300" fill="none" xmlns="http://www.w3.org/2000/svg">
<rect width="300" height="300" fill="url(#paint0_linear_103_2771)"/>
<g filter="url(#filter0_d_103_2771)">
<path d="M150 45C177.848 45 204.555 56.0625 224.246 75.7538C243.938 95.4451 255 122.152 255 150C255 177.848 243.938 204.555 224.246 224.246C204.555 243.938 177.848 255 150 255L150 150L150 45Z" fill="url(#paint1_linear_103_2771)"/>
<path d="M150 45C122.152 45 95.4451 56.0625 75.7538 75.7538C56.0625 95.4451 45 122.152 45 150C45 177.848 56.0625 204.555 75.7538 224.246C95.4451 243.938 122.152 255 150 255L150 150L150 45Z" fill="url(#paint2_linear_103_2771)"/>
</g>
<defs>
<filter id="filter0_d_103_2771" x="35" y="45" width="230" height="230" filterUnits="userSpaceOnUse" color-interpolation-filters="sRGB">
<feFlood flood-opacity="0" result="BackgroundImageFix"/>
<feColorMatrix in="SourceAlpha" type="matrix" values="0 0 0 0 0 0 0 0 0 0 0 0 0 0 0 0 0 0 127 0" result="hardAlpha"/>
<feOffset dy="10"/>
<feGaussianBlur stdDeviation="5"/>
<feComposite in2="hardAlpha" operator="out"/>
<feColorMatrix type="matrix" values="0 0 0 0 0 0 0 0 0 0 0 0 0 0 0 0 0 0 0.05 0"/>
<feBlend mode="normal" in2="BackgroundImageFix" result="effect1_dropShadow_103_2771"/>
<feBlend mode="normal" in="SourceGraphic" in2="effect1_dropShadow_103_2771" result="shape"/>
</filter>
<linearGradient id="paint0_linear_103_2771" x1="150" y1="0" x2="150" y2="300" gradientUnits="userSpaceOnUse">
<stop stop-color="#8710FF"/>
<stop offset="1" stop-color="#FF8855"/>
</linearGradient>
<linearGradient id="paint1_linear_103_2771" x1="150" y1="45" x2="150" y2="255" gradientUnits="userSpaceOnUse">
<stop stop-color="white"/>
<stop offset="1" stop-color="white" stop-opacity="0.8"/>
</linearGradient>
<linearGradient id="paint2_linear_103_2771" x1="150" y1="45" x2="150" y2="255" gradientUnits="userSpaceOnUse">
<stop stop-color="white" stop-opacity="0.6"/>
<stop offset="1" stop-color="white" stop-opacity="0.2"/>
</linearGradient>
</defs>
</svg>
