<svg width="300" height="300" viewBox="0 0 300 300" fill="none" xmlns="http://www.w3.org/2000/svg">
<rect width="300" height="300" fill="#002254"/>
<path d="M45.6348 166H82.6367C86.2402 166 88.6572 163.935 88.6572 160.507C88.6572 157.079 86.2842 155.014 82.6367 155.014H54.9072V154.662L84.9658 113.925C86.1523 112.299 86.9873 110.937 86.9873 108.915C86.9873 105.048 84.3506 102.587 80.2197 102.587H44.8877C41.2842 102.587 38.9111 104.652 38.9111 108.08C38.9111 111.508 41.3281 113.573 44.8877 113.573H71.123V113.881L40.8447 154.75C39.4824 156.596 38.9111 158.046 38.9111 159.892C38.9111 163.583 41.5918 166 45.6348 166ZM103.687 166H133.833C137.48 166 139.854 163.935 139.854 160.507C139.854 157.079 137.437 155.014 133.833 155.014H110.322V139.018H132.69C136.03 139.018 138.228 137.084 138.228 133.92C138.228 130.756 135.986 128.822 132.69 128.822H110.322V113.573H133.833C137.437 113.573 139.854 111.508 139.854 108.08C139.854 104.652 137.48 102.587 133.833 102.587H103.687C99.5117 102.587 97.0508 105.136 97.0508 109.486V159.057C97.0508 163.451 99.5117 166 103.687 166ZM155.278 166H184.414C188.062 166 190.435 163.935 190.435 160.507C190.435 157.079 188.018 155.014 184.414 155.014H161.914V108.651C161.914 104.257 159.453 101.708 155.278 101.708C151.104 101.708 148.643 104.257 148.643 108.651V159.057C148.643 163.451 151.104 166 155.278 166Z" fill="white"/>
<path d="M45.6348 252H82.6367C86.2402 252 88.6572 249.935 88.6572 246.507C88.6572 243.079 86.2842 241.014 82.6367 241.014H54.9072V240.662L84.9658 199.925C86.1523 198.299 86.9873 196.937 86.9873 194.915C86.9873 191.048 84.3506 188.587 80.2197 188.587H44.8877C41.2842 188.587 38.9111 190.652 38.9111 194.08C38.9111 197.508 41.3281 199.573 44.8877 199.573H71.123V199.881L40.8447 240.75C39.4824 242.596 38.9111 244.046 38.9111 245.892C38.9111 249.583 41.5918 252 45.6348 252ZM103.687 252H133.833C137.48 252 139.854 249.935 139.854 246.507C139.854 243.079 137.437 241.014 133.833 241.014H110.322V225.018H132.69C136.03 225.018 138.228 223.084 138.228 219.92C138.228 216.756 135.986 214.822 132.69 214.822H110.322V199.573H133.833C137.437 199.573 139.854 197.508 139.854 194.08C139.854 190.652 137.48 188.587 133.833 188.587H103.687C99.5117 188.587 97.0508 191.136 97.0508 195.486V245.057C97.0508 249.451 99.5117 252 103.687 252ZM155.278 252H184.414C188.062 252 190.435 249.935 190.435 246.507C190.435 243.079 188.018 241.014 184.414 241.014H161.914V194.651C161.914 190.257 159.453 187.708 155.278 187.708C151.104 187.708 148.643 190.257 148.643 194.651V245.057C148.643 249.451 151.104 252 155.278 252ZM204.146 252H234.292C237.939 252 240.312 249.935 240.312 246.507C240.312 243.079 237.896 241.014 234.292 241.014H210.781V225.018H233.149C236.489 225.018 238.687 223.084 238.687 219.92C238.687 216.756 236.445 214.822 233.149 214.822H210.781V199.573H234.292C237.896 199.573 240.312 197.508 240.312 194.08C240.312 190.652 237.939 188.587 234.292 188.587H204.146C199.971 188.587 197.51 191.136 197.51 195.486V245.057C197.51 249.451 199.971 252 204.146 252Z" fill="white"/>
</svg>
