<?xml version="1.0" encoding="UTF-8"?>
<svg width="512px" height="512px" viewBox="0 0 512 512" version="1.1" xmlns="http://www.w3.org/2000/svg" xmlns:xlink="http://www.w3.org/1999/xlink" style="background: #FFFFFF;">
  <title>iconsafari-pinned-tab</title>
  <desc>Created with Sketch.</desc>
  <defs></defs>
  <g id="Page-1" stroke="none" stroke-width="1" fill="none" fill-rule="evenodd">
    <g id="icon">
      <g id="yatsı" transform="translate(0.000000, 140.000000)" fill="#FFD8BA">
        <rect id="Rectangle-3" x="0" y="0" width="512" height="202"></rect>
      </g>
      <g id="akşam" transform="translate(0.000000, 60.000000)">
        <rect id="bg" fill="#FFD8BA" x="0" y="0" width="512" height="80"></rect>
        <rect id="bg-dark" fill-opacity="0.300000012" fill="#000000" style="mix-blend-mode: overlay;" x="0" y="0" width="512" height="80"></rect>
      </g>
      <g id="akşam-copy-2" transform="translate(0.000000, 342.000000)">
        <rect id="bg" fill="#FFD8BA" x="0" y="0" width="512" height="80"></rect>
        <rect id="bg-dark" fill-opacity="0.3" fill="#000000" style="mix-blend-mode: overlay;" x="0" y="0" width="512" height="80"></rect>
      </g>
      <g id="akşam-copy">
        <rect id="bg" fill="#FFD8BA" x="0" y="0" width="512" height="60"></rect>
        <rect id="bg-dark" fill-opacity="0.599999964" fill="#000000" style="mix-blend-mode: overlay;" x="0" y="0" width="512" height="60"></rect>
      </g>
      <g id="akşam-copy-3" transform="translate(0.000000, 422.000000)">
        <rect id="bg" fill="#FFD8BA" x="0" y="0" width="512" height="60"></rect>
        <rect id="bg-dark" fill-opacity="0.6" fill="#000000" style="mix-blend-mode: overlay;" x="0" y="0" width="512" height="60"></rect>
      </g>
      <g id="akşam-copy-4" transform="translate(0.000000, 482.000000)">
        <rect id="bg" fill="#FFD8BA" x="0" y="0" width="512" height="30"></rect>
        <rect id="bg-dark" fill-opacity="0.8" fill="#000000" style="mix-blend-mode: overlay;" x="0" y="0" width="512" height="30"></rect>
      </g>
      <path d="M121.848889,264.296889 L256.003556,398.455111 L390.225778,264.225778 L390.222222,264.225778 C406.147556,248.300444 416,226.302222 416,202.003556 C416,153.399111 376.597333,114 327.992889,114 C298.222222,114 271.921778,128.801778 256,151.429333 C240.074667,128.798222 213.774222,114 184.003556,114 C135.395556,114 96,153.399111 96,202.003556 C96,226.337778 105.880889,248.368 121.848889,264.296889 Z" id="Shape" fill="#FFFFFF" fill-rule="nonzero"></path>
    </g>
  </g>
</svg>
